grf
version=1
nRows=21
nColumns=19
inDegrees=yes
endheader
time	ground_force_1_vx	ground_force_1_vy	ground_force_1_vz	ground_force_1_px	ground_force_1_py	ground_force_1_pz	ground_moment_1_mx	ground_moment_1_my	ground_moment_1_mz	ground_force_2_vx	ground_force_2_vy	ground_force_2_vz	ground_force_2_px	ground_force_2_py	ground_force_2_pz	ground_moment_2_mx	ground_moment_2_my	ground_moment_2_mz
5.763000	-0.829532	1270.652588	-484.965027	0.190976	0.000000	-0.746818	0.000000	2.711983	0.000000	-17.523245	1246.408691	484.576355	0.215584	0.000000	-1.594755	0.000000	-7.484127	-0.000000
5.764000	0.951885	1269.844116	-482.872253	0.191719	0.000000	-0.747711	0.000000	2.004546	0.000000	-17.563829	1242.419434	483.449982	0.216140	0.000000	-1.594705	0.000000	-7.236150	-0.000000
5.765000	0.987567	1258.490234	-482.305481	0.190747	0.000000	-0.745857	0.000000	2.546330	0.000000	-14.664514	1239.396729	482.122803	0.215782	0.000000	-1.594758	0.000000	-6.957367	-0.000000
5.766000	3.527928	1264.424805	-477.440796	0.190718	0.000000	-0.746715	0.000000	2.762329	0.000000	-17.081646	1226.961914	481.318115	0.216034	0.000000	-1.594766	0.000000	-7.313709	-0.000000
5.767000	1.470883	1256.571045	-479.325775	0.190783	0.000000	-0.746291	0.000000	2.545795	0.000000	-17.684895	1231.905762	479.186768	0.215962	0.000000	-1.595041	0.000000	-7.387261	-0.000000
5.768000	1.713873	1253.538696	-477.110596	0.190265	0.000000	-0.746577	0.000000	2.727891	0.000000	-18.611300	1222.338989	479.587311	0.216206	0.000000	-1.595195	0.000000	-7.296226	-0.000000
5.769000	3.697656	1259.605835	-476.507172	0.190996	0.000000	-0.745664	0.000000	1.953291	0.000000	-17.403149	1217.707886	476.894379	0.216521	0.000000	-1.593885	0.000000	-7.083358	-0.000000
5.770000	3.574640	1238.190552	-474.334290	0.189414	0.000000	-0.745662	0.000000	2.874079	0.000000	-18.690950	1212.935181	475.968445	0.216628	0.000000	-1.595420	0.000000	-7.096253	-0.000000
5.771000	3.693091	1236.117432	-473.807922	0.189605	0.000000	-0.747805	0.000000	2.775337	0.000000	-18.207386	1202.901489	474.721802	0.217182	0.000000	-1.595487	0.000000	-6.732729	-0.000000
5.772000	3.041188	1239.443726	-471.997437	0.190242	0.000000	-0.746216	0.000000	2.865382	0.000000	-18.649677	1205.443604	473.354462	0.216146	0.000000	-1.594167	0.000000	-7.205762	-0.000000
5.773000	4.375350	1238.966309	-470.505249	0.190058	0.000000	-0.746583	0.000000	2.641020	0.000000	-18.448547	1195.401611	471.584656	0.216848	0.000000	-1.595740	0.000000	-6.886321	-0.000000
5.774000	3.606896	1232.074829	-468.937134	0.190395	0.000000	-0.746409	0.000000	2.728902	0.000000	-17.399284	1202.898193	471.221619	0.216833	0.000000	-1.595839	0.000000	-6.365984	-0.000000
5.775000	1.878275	1243.286011	-467.687805	0.189425	0.000000	-0.749061	0.000000	3.024114	0.000000	-19.975719	1215.340820	469.332092	0.218890	0.000000	-1.595293	0.000000	-5.789601	-0.000000
5.776000	3.808880	1230.478149	-466.761658	0.189954	0.000000	-0.746672	0.000000	2.877173	0.000000	-19.655458	1191.256592	467.723450	0.216987	0.000000	-1.595249	0.000000	-6.868307	-0.000000
5.777000	4.980162	1229.511353	-465.954865	0.190555	0.000000	-0.747596	0.000000	2.397477	0.000000	-19.455433	1186.153076	465.952515	0.217165	0.000000	-1.594891	0.000000	-6.785121	-0.000000
5.778000	4.978260	1219.586792	-463.860199	0.190103	0.000000	-0.746270	0.000000	2.661395	0.000000	-20.299290	1183.928711	465.349274	0.217873	0.000000	-1.595324	0.000000	-6.396308	-0.000000
5.779000	4.694645	1227.311401	-463.990509	0.189368	0.000000	-0.745692	0.000000	3.466499	0.000000	-21.789326	1185.045166	465.548248	0.217554	0.000000	-1.595380	0.000000	-6.604058	-0.000000
5.780000	4.893586	1211.393677	-461.891602	0.190623	0.000000	-0.746792	0.000000	2.797562	0.000000	-22.555050	1175.957153	464.623108	0.217771	0.000000	-1.595809	-0.000000	-6.699434	-0.000000
5.781000	4.654781	1203.256836	-459.674347	0.189545	0.000000	-0.743961	0.000000	3.065807	0.000000	-20.821922	1171.967041	460.039551	0.217953	0.000000	-1.594541	0.000000	-6.275933	-0.000000
5.782000	4.370405	1203.892212	-459.272461	0.189827	0.000000	-0.745207	0.000000	3.083004	-0.000000	-20.982466	1165.262573	459.999939	0.216833	0.000000	-1.596944	0.000000	-6.859153	-0.000000
5.783000	4.936113	1205.163940	-456.813232	0.190244	0.000000	-0.746887	0.000000	2.709676	0.000000	-21.626436	1163.834473	457.506714	0.217436	0.000000	-1.594591	-0.000000	-6.639509	-0.000000
